<?xml version="1.0" encoding="UTF-8"?>
<svg id="Layer_2" data-name="Layer 2" xmlns="http://www.w3.org/2000/svg" xmlns:xlink="http://www.w3.org/1999/xlink" viewBox="0 0 600 159.94">
  <defs>
    <style>
      .cls-1 {
        fill: url(#linear-gradient);
      }
    </style>
    <linearGradient id="linear-gradient" x1="0" y1="79.97" x2="600" y2="79.97" gradientUnits="userSpaceOnUse">
      <stop offset="0" stop-color="#09237f"/>
      <stop offset=".09" stop-color="#11227e"/>
      <stop offset=".23" stop-color="#27227c"/>
      <stop offset=".4" stop-color="#4c2279"/>
      <stop offset=".59" stop-color="#802275"/>
      <stop offset=".81" stop-color="#c12270"/>
      <stop offset="1" stop-color="#ff226b"/>
    </linearGradient>
  </defs>
  <g id="Layer_1-2" data-name="Layer 1">
    <path class="cls-1" d="M220.22,39.95c-31.42,0-47.68,16.42-47.68,44.68s16.26,44.52,47.68,44.52,47.68-16.26,47.68-44.52-16.26-44.68-47.68-44.68ZM220.22,104.68c-10.74,0-14.05-6.32-14.05-20.05s3.31-20.21,14.05-20.21,14.05,6.31,14.05,20.21-3.32,20.05-14.05,20.05ZM158.32,39.95c3.47,0,6.63.47,9.16,1.1l-3.16,29.84c-2.53-.47-4.89-.63-7.26-.63-11.68,0-19.42,6.63-19.42,17.21v39.31h-33.16V42.32h29.37l3.32,18.63h1.1c2.69-13.26,7.58-21,20.05-21ZM93.58,54.2c0,24.07-13.41,38.28-44.26,38.28h-13.79v34.53H0v-29.74c11.65-11.65,18.18-18.18,29.83-29.83h13.04c11.15,0,15.51-4.04,15.51-14.05s-4.36-13.49-15.51-13.49h-19.16v23.68h-8.65v-15.05H0v-8.65h23.7V14.46h27.07c29.4,0,42.8,14.22,42.8,39.73ZM386.67,42.32h33.15v84.47h-33.15V42.32ZM600,42.32l-27.47,84.47c-7.11,21.79-17.05,33.16-39.63,33.16-7.11,0-15.32-1.26-20.84-2.84l3.16-24.63c3.47.79,9.32,1.42,13.1,1.42,8.21,0,12.63-1.42,16.11-7.11h-14.68l-31.9-75.98v15.99h-19.42v60h-33.16v-60h-13.1v-24.47h13.1v-5.84c0-21.16,9.95-30.47,34.26-30.47,9.16,0,17.37,1.26,21.31,2.37l-3.16,24c-1.74-.32-5.37-.79-9.32-.79-8.05,0-9.95,4.11-9.95,10.26v.47h57.96l15.16,55.58h1.1l14.21-55.58h33.16ZM340.39,39.95c-15.48,0-23.21,8.37-26.53,17.68h-1.1l-2.84-15.31h-29.37v115.26h33.15v-44.05h1.1c3.32,9,10.89,15.63,25.58,15.63,21,0,33.63-16.89,33.63-44.52s-12.63-44.68-33.63-44.68ZM326.81,103.89c-9.95,0-13.42-6.32-13.42-19.26s3.47-19.42,13.42-19.42,13.58,6.31,13.58,19.42-3.47,19.26-13.58,19.26ZM422.04,16.11c0,10.42-6.95,16.11-18.32,16.11s-18.63-5.69-18.63-16.11,6.95-16.11,18.63-16.11,18.32,5.69,18.32,16.11Z"/>
  </g>
</svg>