<svg width="118" height="42" viewBox="0 0 118 42" fill="none" xmlns="http://www.w3.org/2000/svg">
<g clip-path="url(#clip0_8205_44989)">
<path d="M29.7684 11.9341C29.007 11.0335 28.0682 10.3294 26.952 9.82183C25.8359 9.31423 24.5532 9.06042 23.1068 9.06042C21.5076 9.06042 20.0803 9.37154 18.8249 9.99376C17.5696 10.616 16.5462 11.4593 15.7602 12.5263C15.0234 11.4593 14.1037 10.616 13.0012 9.99376C11.8986 9.37154 10.545 9.06042 8.94853 9.06042C7.50213 9.06042 6.21948 9.31423 5.1033 9.82183C3.98712 10.3294 3.05379 11.0335 2.30603 11.9341C1.55827 12.8347 0.985172 13.9018 0.59219 15.1325C0.199207 16.3633 0.00271606 17.7033 0.00271606 19.1497V28.4748H3.73332V19.0733C3.73332 18.1864 3.8343 17.3595 4.03897 16.598C4.24092 15.8366 4.56022 15.1762 4.99141 14.6195C5.4226 14.0628 5.96841 13.6288 6.62884 13.3259C7.28927 13.0203 8.06159 12.8702 8.95125 12.8702C9.84092 12.8702 10.5505 13.0175 11.1591 13.3068C11.7676 13.5988 12.2698 14.0109 12.6628 14.5431C13.0557 15.0752 13.3723 15.7029 13.6152 16.4261C13.8553 17.1493 14.0273 17.9298 14.1283 18.7676C14.1528 18.844 14.1665 18.9696 14.1665 19.1497L15.3072 28.4748H19.0378L17.8971 19.0733C17.7961 18.1864 17.8398 17.3595 18.0308 16.598C18.2218 15.8366 18.5438 15.1844 19.0023 14.6386C19.4581 14.0928 20.0366 13.6616 20.7353 13.345C21.4339 13.0285 22.2253 12.8702 23.115 12.8702C24.0047 12.8702 24.777 13.023 25.4374 13.3259C26.0978 13.6316 26.6409 14.0628 27.0748 14.6195C27.506 15.1789 27.8308 15.8366 28.0464 16.598C28.262 17.3595 28.3711 18.1836 28.3711 19.0733V28.4748H32.0635V19.1497C32.0635 17.7033 31.8725 16.3633 31.4932 15.1325C31.1111 13.9018 30.5407 12.8374 29.7793 11.9341H29.7684Z" fill="url(#paint0_linear_8205_44989)"/>
<path d="M51.0659 11.6858C49.352 9.93372 47.1633 9.06042 44.4998 9.06042C43.0534 9.06042 41.7325 9.31423 40.5399 9.82183C39.3473 10.3294 38.3267 11.0335 37.4752 11.9341C36.6238 12.8347 35.9661 13.9018 35.4967 15.1325C35.0273 16.3633 34.7926 17.7033 34.7926 19.1497C34.7926 20.5961 35.0273 21.917 35.4967 23.1095C35.9661 24.3021 36.6265 25.3228 37.4752 26.1743C38.324 27.0257 39.3473 27.6834 40.5399 28.1528C41.7325 28.6222 43.0534 28.8569 44.4998 28.8569C45.9462 28.8569 47.2097 28.6413 48.3641 28.2101C49.5185 27.7789 50.5146 27.1567 51.3524 26.3462L51.6199 28.4776H55.3505L54.2097 19.076C53.8277 15.9049 52.7824 13.4405 51.0686 11.6912L51.0659 11.6858ZM48.839 23.4097C47.7474 24.5014 46.301 25.0472 44.4998 25.0472C42.6986 25.0472 41.244 24.5014 40.1415 23.4097C39.0362 22.3181 38.485 20.8717 38.485 19.0706C38.485 18.1836 38.6296 17.3567 38.9216 16.5953C39.2136 15.8339 39.6257 15.1735 40.1579 14.6168C40.69 14.06 41.3259 13.6261 42.06 13.3232C42.7969 13.0175 43.6074 12.8674 44.4971 12.8674C45.3867 12.8674 46.1972 13.0203 46.9341 13.3232C47.6709 13.6288 48.2986 14.06 48.8199 14.6168C49.3384 15.1762 49.745 15.8339 50.037 16.5953C50.329 17.3567 50.4737 18.1809 50.4737 19.0706C50.4737 20.8717 49.9279 22.3181 48.8362 23.4097H48.839Z" fill="url(#paint1_linear_8205_44989)"/>
<path d="M57.2908 13.1704H68.2152L57.2908 24.7415V28.4721H73.3158V24.7415H62.3914L73.3158 13.1704V9.43976H57.2908V13.1704Z" fill="url(#paint2_linear_8205_44989)"/>
<path d="M91.4176 11.6858C89.7037 9.93372 87.515 9.06042 84.8515 9.06042C83.4051 9.06042 82.0842 9.31423 80.8916 9.82183C79.699 10.3294 78.6784 11.0335 77.8269 11.9341C76.9754 12.8347 76.3177 13.9018 75.8483 15.1325C75.379 16.3633 75.1443 17.7033 75.1443 19.1497C75.1443 20.5961 75.379 21.917 75.8483 23.1095C76.3177 24.3021 76.9782 25.3228 77.8269 26.1743C78.6756 27.0257 79.699 27.6834 80.8916 28.1528C82.0842 28.6222 83.4051 28.8569 84.8515 28.8569C86.2979 28.8569 87.5587 28.6413 88.7158 28.2101C89.8702 27.7789 90.8663 27.1567 91.7041 26.3462L91.9715 28.4776H95.7021L94.5587 19.076C94.1793 15.9049 93.1314 13.4405 91.4176 11.6912V11.6858ZM89.1907 23.4097C88.099 24.5014 86.6526 25.0472 84.8515 25.0472C83.0503 25.0472 81.5957 24.5014 80.4932 23.4097C79.3879 22.3181 78.8367 20.8717 78.8367 19.0706C78.8367 18.1836 78.9813 17.3567 79.2733 16.5953C79.5653 15.8339 79.9774 15.1735 80.5096 14.6168C81.0417 14.06 81.6776 13.6261 82.4117 13.3232C83.1485 13.0175 83.9591 12.8674 84.8487 12.8674C85.7384 12.8674 86.5489 13.0203 87.2858 13.3232C88.0226 13.6288 88.6503 14.06 89.1715 14.6168C89.6928 15.1762 90.0967 15.8339 90.3887 16.5953C90.6807 17.3567 90.8253 18.1809 90.8253 19.0706C90.8253 20.8717 90.2795 22.3181 89.1879 23.4097H89.1907Z" fill="url(#paint3_linear_8205_44989)"/>
<path d="M113.209 5.22882V11.0008C112.396 10.3922 111.49 9.91732 110.488 9.57346C109.484 9.2296 108.4 9.0604 107.232 9.0604C105.786 9.0604 104.465 9.3142 103.273 9.8218C102.08 10.3294 101.059 11.0335 100.208 11.9341C99.3563 12.8347 98.6959 13.9017 98.2292 15.1325C97.7598 16.3633 97.5251 17.7006 97.5251 19.1497C97.5251 20.5988 97.7598 21.9169 98.2292 23.1095C98.6986 24.3021 99.3591 25.3228 100.208 26.1742C101.057 27.0257 102.08 27.6834 103.273 28.1528C104.465 28.6222 105.786 28.8569 107.232 28.8569C108.4 28.8569 109.484 28.7041 110.488 28.4011C111.49 28.0982 112.398 27.6534 113.209 27.0694V28.4776H116.94V5.22882H113.209ZM111.574 23.4097C110.483 24.5013 109.036 25.0471 107.235 25.0471C105.434 25.0471 103.979 24.5013 102.877 23.4097C101.774 22.3181 101.22 20.8717 101.22 19.0705C101.22 18.1836 101.365 17.3567 101.657 16.5953C101.949 15.8339 102.361 15.1735 102.896 14.6167C103.428 14.06 104.064 13.6261 104.798 13.3232C105.535 13.0175 106.345 12.8674 107.235 12.8674C108.125 12.8674 108.935 13.0202 109.672 13.3232C110.409 13.6288 111.037 14.06 111.555 14.6167C112.074 15.1762 112.48 15.8339 112.772 16.5953C113.064 17.3567 113.209 18.1809 113.209 19.0705C113.209 20.8717 112.663 22.3181 111.572 23.4097H111.574Z" fill="url(#paint4_linear_8205_44989)"/>
<path d="M62.1813 40.9439H65.5735V41.8635H61.2097V34.5524H65.5216V35.4721H62.1813V37.7181H65.2624V38.6269H62.1813V40.9439Z" fill="#09237F"/>
<path d="M73.8152 42C73.1329 42 72.5489 41.839 72.0659 41.5197C71.5828 41.2004 71.2417 40.761 71.0479 40.2043L71.883 39.724C72.1696 40.6082 72.8191 41.0503 73.837 41.0503C74.3392 41.0503 74.7212 40.9466 74.986 40.7419C75.2507 40.5372 75.3817 40.2643 75.3817 39.9232C75.3817 39.5821 75.2507 39.3146 74.986 39.1399C74.7212 38.9653 74.2791 38.7797 73.6596 38.586C73.3567 38.4822 73.1247 38.4031 72.961 38.3458C72.8 38.2912 72.598 38.2012 72.3579 38.0811C72.1177 37.9583 71.9376 37.8355 71.8203 37.7045C71.7029 37.5762 71.5965 37.407 71.501 37.1969C71.4082 36.9895 71.3591 36.752 71.3591 36.4873C71.3591 35.8542 71.5828 35.352 72.0277 34.9782C72.4725 34.607 73.0156 34.4187 73.6569 34.4187C74.2355 34.4187 74.7376 34.5661 75.1661 34.8581C75.5945 35.1501 75.9166 35.5376 76.1322 36.0179L75.3189 36.4873C75.0051 35.7341 74.4511 35.3602 73.6596 35.3602C73.2639 35.3602 72.9419 35.4585 72.699 35.6522C72.4561 35.846 72.3333 36.1107 72.3333 36.4464C72.3333 36.7821 72.4479 37.0113 72.6772 37.1778C72.9064 37.3442 73.3049 37.5189 73.8671 37.699C74.0635 37.77 74.2055 37.8191 74.2928 37.8491C74.3774 37.8791 74.5111 37.9255 74.6885 37.9883C74.8659 38.0511 74.9969 38.1029 75.0815 38.1438C75.1633 38.1848 75.278 38.2448 75.4199 38.3212C75.5618 38.3976 75.6682 38.4713 75.7392 38.5396C75.8101 38.6105 75.8893 38.6951 75.9848 38.7961C76.0776 38.8971 76.1458 39.0008 76.1895 39.1045C76.2304 39.2082 76.2686 39.3283 76.2986 39.4647C76.3286 39.6012 76.345 39.7458 76.345 39.8986C76.345 40.5399 76.1103 41.0475 75.6464 41.4296C75.1797 41.809 74.5711 42 73.8179 42" fill="#09237F"/>
<path d="M86.6199 34.5524V35.4721H84.4557V41.8635H83.4951V35.4721H81.3446V34.5524H86.6199Z" fill="#09237F"/>
<path d="M96.5727 41.8635L95.975 40.2234H92.6865L92.0889 41.8635H91.0546L93.7809 34.5524H94.878L97.6043 41.8635H96.57H96.5727ZM93.0195 39.3146H95.6448L94.3322 35.7068L93.0195 39.3146Z" fill="#09237F"/>
<path d="M107.328 34.5524V35.4721H105.166V41.8635H104.206V35.4721H102.055V34.5524H107.328Z" fill="#09237F"/>
<path d="M113.97 40.9439H117.365V41.8635H112.999V34.5524H117.313V35.4721H113.97V37.7181H117.051V38.6269H113.97V40.9439Z" fill="#09237F"/>
<path d="M117.753 2.84092L115.389 0.136433C115.228 -0.0464134 114.945 -0.0464134 114.784 0.136433L112.42 2.84092C112.194 3.10018 112.377 3.50953 112.723 3.50953H117.453C117.799 3.50953 117.982 3.1029 117.756 2.84092" fill="url(#paint5_linear_8205_44989)"/>
</g>
<defs>
<linearGradient id="paint0_linear_8205_44989" x1="-10.0074" y1="25.0608" x2="86.609" y2="4.74308" gradientUnits="userSpaceOnUse">
<stop offset="0.07" stop-color="#FF226B"/>
<stop offset="0.54" stop-color="#852274"/>
<stop offset="1" stop-color="#09237F"/>
</linearGradient>
<linearGradient id="paint1_linear_8205_44989" x1="-9.86279" y1="31.2148" x2="86.7509" y2="10.8971" gradientUnits="userSpaceOnUse">
<stop offset="0.14" stop-color="#FF226B"/>
<stop offset="1" stop-color="#09237F"/>
</linearGradient>
<linearGradient id="paint2_linear_8205_44989" x1="9.30331" y1="30.7318" x2="105.92" y2="10.4168" gradientUnits="userSpaceOnUse">
<stop stop-color="#FF237F"/>
<stop offset="0.01" stop-color="#FA227E"/>
<stop offset="0.23" stop-color="#B32278"/>
<stop offset="0.43" stop-color="#782273"/>
<stop offset="0.61" stop-color="#4A2270"/>
<stop offset="0.77" stop-color="#29226D"/>
<stop offset="0.91" stop-color="#15226B"/>
<stop offset="1" stop-color="#0E226B"/>
</linearGradient>
<linearGradient id="paint3_linear_8205_44989" x1="10.3213" y1="35.4557" x2="106.938" y2="15.138" gradientUnits="userSpaceOnUse">
<stop stop-color="#FF237F"/>
<stop offset="0.01" stop-color="#FA227E"/>
<stop offset="0.23" stop-color="#B32278"/>
<stop offset="0.43" stop-color="#782273"/>
<stop offset="0.61" stop-color="#4A2270"/>
<stop offset="0.77" stop-color="#29226D"/>
<stop offset="0.91" stop-color="#15226B"/>
<stop offset="1" stop-color="#0E226B"/>
</linearGradient>
<linearGradient id="paint4_linear_8205_44989" x1="10.9871" y1="38.7388" x2="107.604" y2="18.4237" gradientUnits="userSpaceOnUse">
<stop stop-color="#FF237F"/>
<stop offset="0.01" stop-color="#FA227E"/>
<stop offset="0.23" stop-color="#B32278"/>
<stop offset="0.43" stop-color="#782273"/>
<stop offset="0.61" stop-color="#4A2270"/>
<stop offset="0.77" stop-color="#29226D"/>
<stop offset="0.91" stop-color="#15226B"/>
<stop offset="1" stop-color="#0E226B"/>
</linearGradient>
<linearGradient id="paint5_linear_8205_44989" x1="124.608" y1="-6.58521" x2="106.324" y2="11.6994" gradientUnits="userSpaceOnUse">
<stop offset="0.07" stop-color="#FF226B"/>
<stop offset="0.54" stop-color="#852274"/>
<stop offset="1" stop-color="#09237F"/>
</linearGradient>
<clipPath id="clip0_8205_44989">
<rect width="117.854" height="42" fill="white"/>
</clipPath>
</defs>
</svg>
