<svg xmlns="http://www.w3.org/2000/svg" width="175" height="30" viewBox="0 0 175 30">
  <g id="Group_403" data-name="Group 403" transform="translate(12699 2951)">
    <text id="No_Image" data-name="No Image" transform="translate(-12659 -2926)" fill="#fff" font-size="28" font-family="Gotham-Book, Gotham"><tspan x="0" y="0">No Image</tspan></text>
    <g id="photo" transform="translate(-12699 -3010.201)">
      <path id="Path_615" data-name="Path 615" d="M31.292,61.2H2.122A2.122,2.122,0,0,0,0,63.322V85.068A2.122,2.122,0,0,0,2.122,87.19H31.292a2.122,2.122,0,0,0,2.122-2.121V63.322A2.122,2.122,0,0,0,31.292,61.2Zm0,2.121V78.752l-4.181-3.8a1.591,1.591,0,0,0-2.2.053l-4.231,4.231-8.343-9.966a1.591,1.591,0,0,0-2.426-.016L2.122,78.309V63.322Zm-9.016,5.569a2.917,2.917,0,1,1,2.917,2.917A2.917,2.917,0,0,1,22.276,68.892Z" fill="#fff"/>
    </g>
  </g>
</svg>
